<mxfile host="app.diagrams.net" modified="2023-06-18T14:58:21.354Z" agent="Mozilla/5.0 (Windows NT 10.0; Win64; x64) AppleWebKit/537.36 (KHTML, like Gecko) Chrome/114.0.0.0 Safari/537.36" etag="bsabqQPJ4TwteWtjXkfg" version="21.5.0" type="github">
  <diagram name="Page-1" id="e7e014a7-5840-1c2e-5031-d8a46d1fe8dd">
    <mxGraphModel dx="880" dy="484" grid="1" gridSize="10" guides="1" tooltips="1" connect="1" arrows="1" fold="1" page="1" pageScale="1" pageWidth="1169" pageHeight="826" background="none" math="0" shadow="0">
      <root>
        <mxCell id="0" />
        <mxCell id="1" parent="0" />
        <mxCell id="2" value="main" style="swimlane;whiteSpace=wrap" parent="1" vertex="1">
          <mxGeometry x="164.5" y="128" width="280" height="622" as="geometry" />
        </mxCell>
        <mxCell id="5" value="" style="ellipse;shape=startState;fillColor=#000000;strokeColor=#ff0000;" parent="2" vertex="1">
          <mxGeometry x="100" y="40" width="30" height="30" as="geometry" />
        </mxCell>
        <mxCell id="6" value="" style="edgeStyle=elbowEdgeStyle;elbow=horizontal;verticalAlign=bottom;endArrow=open;endSize=8;strokeColor=#FF0000;endFill=1;rounded=0" parent="2" source="5" target="7" edge="1">
          <mxGeometry x="100" y="40" as="geometry">
            <mxPoint x="115" y="110" as="targetPoint" />
          </mxGeometry>
        </mxCell>
        <mxCell id="7" value="Logo()" style="align=center;" parent="2" vertex="1">
          <mxGeometry x="60" y="110" width="110" height="60" as="geometry" />
        </mxCell>
        <mxCell id="8" value="start()" style="" parent="2" vertex="1">
          <mxGeometry x="60" y="220" width="110" height="50" as="geometry" />
        </mxCell>
        <mxCell id="9" value="" style="endArrow=open;strokeColor=#FF0000;endFill=1;rounded=0" parent="2" source="7" target="8" edge="1">
          <mxGeometry relative="1" as="geometry" />
        </mxCell>
        <mxCell id="4C-dhIOJJPqvWlcevab_-61" style="edgeStyle=orthogonalEdgeStyle;rounded=0;orthogonalLoop=1;jettySize=auto;html=1;exitX=0.5;exitY=1;exitDx=0;exitDy=0;entryX=0.5;entryY=0;entryDx=0;entryDy=0;" edge="1" parent="2" source="10" target="4C-dhIOJJPqvWlcevab_-59">
          <mxGeometry relative="1" as="geometry" />
        </mxCell>
        <mxCell id="10" value="bot_message()" style="" parent="2" vertex="1">
          <mxGeometry x="60" y="325" width="110" height="50" as="geometry" />
        </mxCell>
        <mxCell id="11" value="" style="endArrow=open;strokeColor=#FF0000;endFill=1;rounded=0" parent="2" source="8" target="10" edge="1">
          <mxGeometry relative="1" as="geometry" />
        </mxCell>
        <mxCell id="4C-dhIOJJPqvWlcevab_-63" style="edgeStyle=orthogonalEdgeStyle;rounded=0;orthogonalLoop=1;jettySize=auto;html=1;exitX=0.5;exitY=1;exitDx=0;exitDy=0;entryX=0.5;entryY=0;entryDx=0;entryDy=0;" edge="1" parent="2" source="4C-dhIOJJPqvWlcevab_-59" target="4C-dhIOJJPqvWlcevab_-62">
          <mxGeometry relative="1" as="geometry" />
        </mxCell>
        <mxCell id="4C-dhIOJJPqvWlcevab_-59" value="callback()" style="rounded=0;whiteSpace=wrap;html=1;" vertex="1" parent="2">
          <mxGeometry x="57" y="422" width="120" height="60" as="geometry" />
        </mxCell>
        <mxCell id="4C-dhIOJJPqvWlcevab_-62" value="error_message()" style="rounded=0;whiteSpace=wrap;html=1;" vertex="1" parent="2">
          <mxGeometry x="57" y="532" width="120" height="60" as="geometry" />
        </mxCell>
        <mxCell id="3" value="buttons" style="swimlane;whiteSpace=wrap" parent="1" vertex="1">
          <mxGeometry x="444.5" y="128" width="280" height="622" as="geometry" />
        </mxCell>
        <mxCell id="4C-dhIOJJPqvWlcevab_-64" value="" style="ellipse;html=1;shape=startState;fillColor=#000000;strokeColor=#ff0000;" vertex="1" parent="3">
          <mxGeometry x="125.5" y="40" width="30" height="30" as="geometry" />
        </mxCell>
        <mxCell id="4C-dhIOJJPqvWlcevab_-65" value="" style="edgeStyle=orthogonalEdgeStyle;html=1;verticalAlign=bottom;endArrow=open;endSize=8;strokeColor=#ff0000;rounded=0;" edge="1" source="4C-dhIOJJPqvWlcevab_-64" parent="3">
          <mxGeometry relative="1" as="geometry">
            <mxPoint x="140.5" y="112" as="targetPoint" />
          </mxGeometry>
        </mxCell>
        <mxCell id="4C-dhIOJJPqvWlcevab_-67" value="&lt;span style=&quot;white-space: pre;&quot;&gt;&#x9;&lt;/span&gt;&amp;nbsp; &amp;nbsp; &amp;nbsp; Buttons&lt;br&gt;size&lt;br&gt;log&lt;br&gt;orders&lt;br&gt;exe&lt;br&gt;rec&lt;br&gt;arr_buttons&lt;br&gt;markup_out()&lt;br&gt;markup_out_b()&lt;br&gt;protect_orders()&lt;br&gt;orders_and_executors()&lt;br&gt;clear_str()" style="rounded=0;whiteSpace=wrap;html=1;align=left;" vertex="1" parent="3">
          <mxGeometry x="70.5" y="112" width="139.5" height="188" as="geometry" />
        </mxCell>
        <mxCell id="4" value="executor" style="swimlane;whiteSpace=wrap;startSize=23;" parent="1" vertex="1">
          <mxGeometry x="724.5" y="128" width="280" height="622" as="geometry" />
        </mxCell>
        <mxCell id="4C-dhIOJJPqvWlcevab_-68" value="" style="ellipse;html=1;shape=startState;fillColor=#000000;strokeColor=#ff0000;" vertex="1" parent="4">
          <mxGeometry x="125" y="40" width="30" height="30" as="geometry" />
        </mxCell>
        <mxCell id="4C-dhIOJJPqvWlcevab_-69" value="" style="edgeStyle=orthogonalEdgeStyle;html=1;verticalAlign=bottom;endArrow=open;endSize=8;strokeColor=#ff0000;rounded=0;" edge="1" source="4C-dhIOJJPqvWlcevab_-68" parent="4">
          <mxGeometry relative="1" as="geometry">
            <mxPoint x="140.5" y="112" as="targetPoint" />
          </mxGeometry>
        </mxCell>
        <mxCell id="4C-dhIOJJPqvWlcevab_-70" value="&amp;nbsp; &amp;nbsp; &amp;nbsp; &amp;nbsp; Executors&lt;br&gt;executors&lt;br&gt;size&lt;br&gt;list_users()&lt;br&gt;orders_add_executors()&lt;br&gt;id_test()&lt;br&gt;user_na" style="rounded=0;whiteSpace=wrap;html=1;align=left;" vertex="1" parent="4">
          <mxGeometry x="80" y="112" width="120" height="60" as="geometry" />
        </mxCell>
        <mxCell id="4C-dhIOJJPqvWlcevab_-41" value="log" style="swimlane;whiteSpace=wrap;startSize=23;" vertex="1" parent="1">
          <mxGeometry x="1004.5" y="128" width="280" height="622" as="geometry" />
        </mxCell>
        <mxCell id="4C-dhIOJJPqvWlcevab_-49" value="orders" style="swimlane;whiteSpace=wrap;startSize=23;" vertex="1" parent="1">
          <mxGeometry x="1284.5" y="128" width="280" height="622" as="geometry" />
        </mxCell>
        <mxCell id="4C-dhIOJJPqvWlcevab_-55" value="recrutor" style="swimlane;whiteSpace=wrap;startSize=23;" vertex="1" parent="1">
          <mxGeometry x="1564.5" y="128" width="280" height="570" as="geometry" />
        </mxCell>
      </root>
    </mxGraphModel>
  </diagram>
</mxfile>
